<mxfile host="app.diagrams.net" modified="2021-07-04T20:19:02.572Z" agent="5.0 (X11; Linux x86_64) AppleWebKit/537.36 (KHTML, like Gecko) Chrome/91.0.4472.114 Safari/537.36" etag="nBywYpstPsDcv2219hld" version="14.8.4" type="github" pages="2">
  <diagram id="xoRiUA-ES5HcKFGS77Za" name="Security Controls">
    <mxGraphModel dx="1624" dy="1852" grid="1" gridSize="10" guides="1" tooltips="1" connect="1" arrows="1" fold="1" page="1" pageScale="1" pageWidth="850" pageHeight="1100" math="0" shadow="0">
      <root>
        <mxCell id="0" />
        <mxCell id="1" parent="0" />
        <mxCell id="WWmiDZG9GDCA9tlXIu9D-1" style="rounded=0;orthogonalLoop=1;jettySize=auto;html=1;entryX=0;entryY=0.5;entryDx=0;entryDy=0;strokeWidth=2;" edge="1" parent="1" source="WWmiDZG9GDCA9tlXIu9D-3" target="WWmiDZG9GDCA9tlXIu9D-12">
          <mxGeometry relative="1" as="geometry" />
        </mxCell>
        <mxCell id="WWmiDZG9GDCA9tlXIu9D-2" style="edgeStyle=none;rounded=0;orthogonalLoop=1;jettySize=auto;html=1;entryX=0;entryY=0.5;entryDx=0;entryDy=0;strokeWidth=2;" edge="1" parent="1" source="WWmiDZG9GDCA9tlXIu9D-3" target="WWmiDZG9GDCA9tlXIu9D-17">
          <mxGeometry relative="1" as="geometry" />
        </mxCell>
        <mxCell id="WWmiDZG9GDCA9tlXIu9D-3" value="" style="rounded=1;whiteSpace=wrap;html=1;" vertex="1" parent="1">
          <mxGeometry x="-570" y="160" width="130" height="60" as="geometry" />
        </mxCell>
        <mxCell id="WWmiDZG9GDCA9tlXIu9D-4" value="" style="rounded=0;whiteSpace=wrap;html=1;" vertex="1" parent="1">
          <mxGeometry x="-360" y="160" width="120" height="40" as="geometry" />
        </mxCell>
        <mxCell id="WWmiDZG9GDCA9tlXIu9D-5" style="edgeStyle=none;rounded=0;orthogonalLoop=1;jettySize=auto;html=1;entryX=0;entryY=0.5;entryDx=0;entryDy=0;strokeWidth=2;exitX=1;exitY=0.5;exitDx=0;exitDy=0;" edge="1" parent="1" source="WWmiDZG9GDCA9tlXIu9D-3" target="WWmiDZG9GDCA9tlXIu9D-4">
          <mxGeometry relative="1" as="geometry">
            <mxPoint x="-440" y="186" as="sourcePoint" />
          </mxGeometry>
        </mxCell>
        <mxCell id="WWmiDZG9GDCA9tlXIu9D-6" value="&lt;font style=&quot;font-size: 18px&quot;&gt;&lt;b&gt;Security Controls&lt;/b&gt;&lt;/font&gt;" style="text;html=1;strokeColor=none;fillColor=none;align=center;verticalAlign=middle;whiteSpace=wrap;rounded=0;" vertex="1" parent="1">
          <mxGeometry x="-560" y="180" width="110" height="20" as="geometry" />
        </mxCell>
        <mxCell id="WWmiDZG9GDCA9tlXIu9D-7" value="&lt;b&gt;&lt;font style=&quot;font-size: 14px&quot;&gt;Detective&lt;/font&gt;&lt;/b&gt;" style="text;html=1;strokeColor=none;fillColor=none;align=center;verticalAlign=middle;whiteSpace=wrap;rounded=0;" vertex="1" parent="1">
          <mxGeometry x="-320" y="170" width="40" height="20" as="geometry" />
        </mxCell>
        <mxCell id="WWmiDZG9GDCA9tlXIu9D-8" value="" style="group" vertex="1" connectable="0" parent="1">
          <mxGeometry x="-240" y="60" width="240" height="120" as="geometry" />
        </mxCell>
        <mxCell id="WWmiDZG9GDCA9tlXIu9D-9" value="" style="whiteSpace=wrap;html=1;shape=mxgraph.basic.cloud_callout" vertex="1" parent="WWmiDZG9GDCA9tlXIu9D-8">
          <mxGeometry width="240" height="120" as="geometry" />
        </mxCell>
        <mxCell id="WWmiDZG9GDCA9tlXIu9D-10" value="&lt;b&gt;Alerts you to the fact an attack is happening/has happened&lt;/b&gt;" style="text;html=1;strokeColor=none;fillColor=none;align=center;verticalAlign=middle;whiteSpace=wrap;rounded=0;" vertex="1" parent="WWmiDZG9GDCA9tlXIu9D-8">
          <mxGeometry x="40" y="12" width="160" height="60" as="geometry" />
        </mxCell>
        <mxCell id="WWmiDZG9GDCA9tlXIu9D-11" value="" style="group" vertex="1" connectable="0" parent="1">
          <mxGeometry x="-360" y="-60" width="360" height="140" as="geometry" />
        </mxCell>
        <mxCell id="WWmiDZG9GDCA9tlXIu9D-12" value="" style="rounded=0;whiteSpace=wrap;html=1;" vertex="1" parent="WWmiDZG9GDCA9tlXIu9D-11">
          <mxGeometry y="100" width="120" height="40" as="geometry" />
        </mxCell>
        <mxCell id="WWmiDZG9GDCA9tlXIu9D-13" value="" style="whiteSpace=wrap;html=1;shape=mxgraph.basic.cloud_callout" vertex="1" parent="WWmiDZG9GDCA9tlXIu9D-11">
          <mxGeometry x="120" width="240" height="120" as="geometry" />
        </mxCell>
        <mxCell id="WWmiDZG9GDCA9tlXIu9D-14" value="&lt;b&gt;Stopping an attack from happening&lt;/b&gt;" style="text;html=1;strokeColor=none;fillColor=none;align=center;verticalAlign=middle;whiteSpace=wrap;rounded=0;" vertex="1" parent="WWmiDZG9GDCA9tlXIu9D-11">
          <mxGeometry x="160" y="20" width="160" height="50" as="geometry" />
        </mxCell>
        <mxCell id="WWmiDZG9GDCA9tlXIu9D-15" value="&lt;font style=&quot;font-size: 14px&quot;&gt;&lt;b&gt;Preventative&lt;/b&gt;&lt;/font&gt;" style="text;html=1;strokeColor=none;fillColor=none;align=center;verticalAlign=middle;whiteSpace=wrap;rounded=0;" vertex="1" parent="WWmiDZG9GDCA9tlXIu9D-11">
          <mxGeometry x="40" y="110" width="40" height="20" as="geometry" />
        </mxCell>
        <mxCell id="WWmiDZG9GDCA9tlXIu9D-16" value="" style="group" vertex="1" connectable="0" parent="1">
          <mxGeometry x="-360" y="200" width="360" height="140" as="geometry" />
        </mxCell>
        <mxCell id="WWmiDZG9GDCA9tlXIu9D-17" value="" style="rounded=0;whiteSpace=wrap;html=1;" vertex="1" parent="WWmiDZG9GDCA9tlXIu9D-16">
          <mxGeometry y="80" width="120" height="40" as="geometry" />
        </mxCell>
        <mxCell id="WWmiDZG9GDCA9tlXIu9D-18" value="&lt;font style=&quot;font-size: 14px&quot;&gt;&lt;b&gt;Responsive&lt;/b&gt;&lt;/font&gt;" style="text;html=1;strokeColor=none;fillColor=none;align=center;verticalAlign=middle;whiteSpace=wrap;rounded=0;" vertex="1" parent="WWmiDZG9GDCA9tlXIu9D-16">
          <mxGeometry x="40" y="90" width="40" height="20" as="geometry" />
        </mxCell>
        <mxCell id="WWmiDZG9GDCA9tlXIu9D-19" value="" style="group" vertex="1" connectable="0" parent="WWmiDZG9GDCA9tlXIu9D-16">
          <mxGeometry x="120" width="240" height="120" as="geometry" />
        </mxCell>
        <mxCell id="WWmiDZG9GDCA9tlXIu9D-20" value="" style="whiteSpace=wrap;html=1;shape=mxgraph.basic.cloud_callout" vertex="1" parent="WWmiDZG9GDCA9tlXIu9D-19">
          <mxGeometry y="-20" width="240" height="120" as="geometry" />
        </mxCell>
        <mxCell id="WWmiDZG9GDCA9tlXIu9D-21" value="&lt;b&gt;Helps you respond during/after an attack&lt;/b&gt;.&lt;br&gt;&lt;font style=&quot;font-size: 10px&quot;&gt;Rebuild your system, backups, ...&lt;/font&gt;" style="text;html=1;strokeColor=none;fillColor=none;align=center;verticalAlign=middle;whiteSpace=wrap;rounded=0;" vertex="1" parent="WWmiDZG9GDCA9tlXIu9D-19">
          <mxGeometry x="40" y="-8" width="160" height="60" as="geometry" />
        </mxCell>
      </root>
    </mxGraphModel>
  </diagram>
  <diagram id="2z0qsIIUjn0hQ3IOsWgd" name="The Five Functions of Cybersecurity">
    <mxGraphModel dx="774" dy="752" grid="1" gridSize="10" guides="1" tooltips="1" connect="1" arrows="1" fold="1" page="1" pageScale="1" pageWidth="850" pageHeight="1100" math="0" shadow="0">
      <root>
        <mxCell id="RtEiH4EW00BezHq5O7lZ-0" />
        <mxCell id="RtEiH4EW00BezHq5O7lZ-1" parent="RtEiH4EW00BezHq5O7lZ-0" />
        <mxCell id="RtEiH4EW00BezHq5O7lZ-24" value="" style="rounded=1;whiteSpace=wrap;html=1;" vertex="1" parent="RtEiH4EW00BezHq5O7lZ-1">
          <mxGeometry y="200" width="240" height="80" as="geometry" />
        </mxCell>
        <mxCell id="RtEiH4EW00BezHq5O7lZ-2" value="&lt;font style=&quot;font-size: 18px&quot;&gt;&lt;b&gt;Cybersecurity&lt;/b&gt;&lt;/font&gt;" style="text;html=1;strokeColor=none;fillColor=none;align=center;verticalAlign=middle;whiteSpace=wrap;rounded=0;" vertex="1" parent="RtEiH4EW00BezHq5O7lZ-1">
          <mxGeometry x="22.5" y="220" width="195" height="40" as="geometry" />
        </mxCell>
        <mxCell id="RtEiH4EW00BezHq5O7lZ-3" style="edgeStyle=none;rounded=0;orthogonalLoop=1;jettySize=auto;html=1;entryX=0;entryY=0.5;entryDx=0;entryDy=0;strokeWidth=2;" edge="1" parent="RtEiH4EW00BezHq5O7lZ-1" target="RtEiH4EW00BezHq5O7lZ-13">
          <mxGeometry relative="1" as="geometry">
            <mxPoint x="225" y="200" as="sourcePoint" />
          </mxGeometry>
        </mxCell>
        <mxCell id="RtEiH4EW00BezHq5O7lZ-4" style="edgeStyle=none;rounded=0;orthogonalLoop=1;jettySize=auto;html=1;entryX=0;entryY=0.5;entryDx=0;entryDy=0;strokeWidth=2;" edge="1" parent="RtEiH4EW00BezHq5O7lZ-1" target="RtEiH4EW00BezHq5O7lZ-22">
          <mxGeometry relative="1" as="geometry">
            <mxPoint x="240" y="240" as="sourcePoint" />
          </mxGeometry>
        </mxCell>
        <mxCell id="RtEiH4EW00BezHq5O7lZ-5" style="edgeStyle=none;rounded=0;orthogonalLoop=1;jettySize=auto;html=1;entryX=0;entryY=0.5;entryDx=0;entryDy=0;strokeWidth=2;exitX=0.646;exitY=1;exitDx=0;exitDy=0;exitPerimeter=0;" edge="1" parent="RtEiH4EW00BezHq5O7lZ-1" target="RtEiH4EW00BezHq5O7lZ-16">
          <mxGeometry relative="1" as="geometry">
            <mxPoint x="155.03999999999996" y="280" as="sourcePoint" />
          </mxGeometry>
        </mxCell>
        <mxCell id="RtEiH4EW00BezHq5O7lZ-6" style="edgeStyle=none;rounded=0;orthogonalLoop=1;jettySize=auto;html=1;entryX=0;entryY=0.5;entryDx=0;entryDy=0;strokeWidth=2;exitX=1.008;exitY=0.925;exitDx=0;exitDy=0;exitPerimeter=0;" edge="1" parent="RtEiH4EW00BezHq5O7lZ-1" target="RtEiH4EW00BezHq5O7lZ-19">
          <mxGeometry relative="1" as="geometry">
            <mxPoint x="241.92000000000007" y="274" as="sourcePoint" />
          </mxGeometry>
        </mxCell>
        <mxCell id="RtEiH4EW00BezHq5O7lZ-7" style="edgeStyle=none;rounded=0;orthogonalLoop=1;jettySize=auto;html=1;entryX=0;entryY=0.5;entryDx=0;entryDy=0;strokeWidth=2;exitX=0.7;exitY=0;exitDx=0;exitDy=0;exitPerimeter=0;" edge="1" parent="RtEiH4EW00BezHq5O7lZ-1" target="RtEiH4EW00BezHq5O7lZ-10">
          <mxGeometry relative="1" as="geometry">
            <mxPoint x="168" y="200" as="sourcePoint" />
          </mxGeometry>
        </mxCell>
        <mxCell id="RtEiH4EW00BezHq5O7lZ-8" value="" style="group" vertex="1" connectable="0" parent="RtEiH4EW00BezHq5O7lZ-1">
          <mxGeometry x="330" y="50" width="120" height="60" as="geometry" />
        </mxCell>
        <mxCell id="RtEiH4EW00BezHq5O7lZ-9" value="" style="group" vertex="1" connectable="0" parent="RtEiH4EW00BezHq5O7lZ-8">
          <mxGeometry width="120" height="60" as="geometry" />
        </mxCell>
        <mxCell id="RtEiH4EW00BezHq5O7lZ-10" value="" style="rounded=0;whiteSpace=wrap;html=1;" vertex="1" parent="RtEiH4EW00BezHq5O7lZ-9">
          <mxGeometry width="120" height="60" as="geometry" />
        </mxCell>
        <mxCell id="RtEiH4EW00BezHq5O7lZ-11" value="&lt;font style=&quot;font-size: 18px&quot;&gt;&lt;b&gt;Identify&lt;/b&gt;&lt;/font&gt;" style="text;html=1;strokeColor=none;fillColor=none;align=center;verticalAlign=middle;whiteSpace=wrap;rounded=0;" vertex="1" parent="RtEiH4EW00BezHq5O7lZ-9">
          <mxGeometry x="10" y="20" width="100" height="20" as="geometry" />
        </mxCell>
        <mxCell id="RtEiH4EW00BezHq5O7lZ-12" value="" style="group" vertex="1" connectable="0" parent="RtEiH4EW00BezHq5O7lZ-1">
          <mxGeometry x="330" y="130" width="120" height="60" as="geometry" />
        </mxCell>
        <mxCell id="RtEiH4EW00BezHq5O7lZ-13" value="" style="rounded=0;whiteSpace=wrap;html=1;" vertex="1" parent="RtEiH4EW00BezHq5O7lZ-12">
          <mxGeometry width="120" height="60" as="geometry" />
        </mxCell>
        <mxCell id="RtEiH4EW00BezHq5O7lZ-14" value="&lt;font style=&quot;font-size: 18px&quot;&gt;&lt;b&gt;Protect&lt;/b&gt;&lt;/font&gt;" style="text;html=1;strokeColor=none;fillColor=none;align=center;verticalAlign=middle;whiteSpace=wrap;rounded=0;" vertex="1" parent="RtEiH4EW00BezHq5O7lZ-12">
          <mxGeometry x="10" y="20" width="100" height="20" as="geometry" />
        </mxCell>
        <mxCell id="RtEiH4EW00BezHq5O7lZ-15" value="" style="group" vertex="1" connectable="0" parent="RtEiH4EW00BezHq5O7lZ-1">
          <mxGeometry x="330" y="370" width="120" height="60" as="geometry" />
        </mxCell>
        <mxCell id="RtEiH4EW00BezHq5O7lZ-16" value="" style="rounded=0;whiteSpace=wrap;html=1;" vertex="1" parent="RtEiH4EW00BezHq5O7lZ-15">
          <mxGeometry width="120" height="60" as="geometry" />
        </mxCell>
        <mxCell id="RtEiH4EW00BezHq5O7lZ-17" value="&lt;font style=&quot;font-size: 18px&quot;&gt;&lt;b&gt;Recover&lt;/b&gt;&lt;/font&gt;" style="text;html=1;strokeColor=none;fillColor=none;align=center;verticalAlign=middle;whiteSpace=wrap;rounded=0;" vertex="1" parent="RtEiH4EW00BezHq5O7lZ-15">
          <mxGeometry x="10" y="20" width="100" height="20" as="geometry" />
        </mxCell>
        <mxCell id="RtEiH4EW00BezHq5O7lZ-18" value="" style="group" vertex="1" connectable="0" parent="RtEiH4EW00BezHq5O7lZ-1">
          <mxGeometry x="330" y="290" width="120" height="60" as="geometry" />
        </mxCell>
        <mxCell id="RtEiH4EW00BezHq5O7lZ-19" value="" style="rounded=0;whiteSpace=wrap;html=1;" vertex="1" parent="RtEiH4EW00BezHq5O7lZ-18">
          <mxGeometry width="120" height="60" as="geometry" />
        </mxCell>
        <mxCell id="RtEiH4EW00BezHq5O7lZ-20" value="&lt;font style=&quot;font-size: 18px&quot;&gt;&lt;b&gt;Respond&lt;/b&gt;&lt;/font&gt;" style="text;html=1;strokeColor=none;fillColor=none;align=center;verticalAlign=middle;whiteSpace=wrap;rounded=0;" vertex="1" parent="RtEiH4EW00BezHq5O7lZ-18">
          <mxGeometry x="10" y="20" width="100" height="20" as="geometry" />
        </mxCell>
        <mxCell id="RtEiH4EW00BezHq5O7lZ-21" value="" style="group" vertex="1" connectable="0" parent="RtEiH4EW00BezHq5O7lZ-1">
          <mxGeometry x="330" y="210" width="120" height="60" as="geometry" />
        </mxCell>
        <mxCell id="RtEiH4EW00BezHq5O7lZ-22" value="" style="rounded=0;whiteSpace=wrap;html=1;" vertex="1" parent="RtEiH4EW00BezHq5O7lZ-21">
          <mxGeometry width="120" height="60" as="geometry" />
        </mxCell>
        <mxCell id="RtEiH4EW00BezHq5O7lZ-23" value="&lt;font style=&quot;font-size: 18px&quot;&gt;&lt;b&gt;Detect&lt;span style=&quot;white-space: pre&quot;&gt;	&lt;/span&gt;&lt;/b&gt;&lt;/font&gt;" style="text;html=1;strokeColor=none;fillColor=none;align=center;verticalAlign=middle;whiteSpace=wrap;rounded=0;" vertex="1" parent="RtEiH4EW00BezHq5O7lZ-21">
          <mxGeometry x="10" y="20" width="100" height="20" as="geometry" />
        </mxCell>
      </root>
    </mxGraphModel>
  </diagram>
</mxfile>
